<svg xmlns="http://www.w3.org/2000/svg" width="1489.714" height="527.813" viewBox="0 0 1489.714 527.813">
  <defs>
    <style>
      .cls-1 {
        fill: #fff;
        fill-rule: evenodd;
      }
    </style>
  </defs>
  <path id="B" class="cls-1" d="M194.549,713.2Q76.22,713.2,40.064,667T3.908,562.015q0-98.211,102.474-122.961Q62.3,427.072,40.064,395.166a121.9,121.9,0,0,1-22.235-71.341q0-54.13,38.283-96.281T177.921,185.4H445.9V713.2H194.549ZM296.637,298.692H224.325q-54.135,0-54.138,44.08,0,16.24,11.6,30.547t39.83,14.307h75.019V298.692Zm0,201.069H223.165q-35.574,0-48.917,15.274t-13.341,33.447q0,18.18,13.727,32.674t43.117,14.5h78.886V499.761Z" transform="translate(-3.906 -185.406)"/>
  <path id="M" class="cls-1" d="M996.511,185.4L923.425,465.734,846.859,185.4H635.143V713.2H756.565V335.812L858.073,713.2H960.935l97.645-377.392V713.2H1209V185.4H996.511Z" transform="translate(-3.906 -185.406)"/>
  <path id="P" class="cls-1" d="M1300.67,521.415q87.78,0,140.37-46.4t52.59-121.8q0-49.491-25.71-89.321-25.725-39.821-69.61-59.161T1270.12,185.4H1044.68V713.2h164.34V521.415h91.65ZM1206.7,306.039h59.56q66.12,0,66.12,49.494,0,52.59-71.54,52.587H1206.7V306.039Z" transform="translate(-3.906 -185.406)"/>
  <path id="N" class="cls-1" d="M766.066,185.4H634.2V341.612a767.562,767.562,0,0,0,12.375,138.429q-18.935-43.7-55.673-101.32L467.922,185.4H314.79V713.2H446.267V457.614q0-35.571-12.761-86.615,28.3,64.146,56.132,109L634.2,713.2H766.066V185.4Z" transform="translate(-3.906 -185.406)"/>
</svg>
